<svg width="64" height="64" viewBox="0 0 72 69" fill="none" xmlns="http://www.w3.org/2000/svg">
<g filter="url(#filter0_d_21_3146)">
<path d="M56.6208 21.9559C55.9569 21.7274 55.269 21.5112 54.5606 21.3067C54.677 20.8315 54.7839 20.3625 54.8789 19.9015C56.4385 12.3312 55.4188 6.23256 51.9368 4.22462C48.5981 2.29928 43.1378 4.30676 37.6232 9.10594C37.0929 9.56743 36.5612 10.056 36.0296 10.5681C35.6754 10.2293 35.3218 9.9019 34.9691 9.58873C29.1897 4.45713 23.3967 2.29461 19.9181 4.30835C16.5826 6.23928 15.5948 11.9726 16.9986 19.147C17.1342 19.84 17.2927 20.5476 17.4718 21.2672C16.652 21.4999 15.8605 21.748 15.1031 22.012C8.32733 24.3743 4 28.0767 4 31.917C4 35.8833 8.64539 39.8616 15.7029 42.2738C16.2599 42.4642 16.8378 42.6442 17.4333 42.8151C17.24 43.5933 17.0719 44.3558 16.9307 45.0996C15.5922 52.1495 16.6375 57.7474 19.9642 59.6661C23.4003 61.6476 29.1671 59.6109 34.7825 54.7023C35.2264 54.3143 35.6718 53.9028 36.118 53.4715C36.6964 54.0285 37.2738 54.5556 37.8482 55.05C43.2874 59.7306 48.6595 61.6206 51.9831 59.6965C55.4158 57.7093 56.5314 51.6959 55.083 44.3795C54.9724 43.8208 54.8437 43.2499 54.6991 42.6689C55.1041 42.5492 55.5017 42.4256 55.8894 42.2971C63.2263 39.8662 68 35.9363 68 31.917C68 28.0628 63.5331 24.3355 56.6208 21.9559ZM55.0295 39.7019C54.6796 39.8177 54.3205 39.9297 53.9546 40.0383C53.1446 37.4741 52.0514 34.7474 50.7137 31.9303C51.9903 29.1803 53.0412 26.4885 53.8285 23.941C54.4832 24.1304 55.1186 24.3302 55.7309 24.5411C61.6533 26.5799 65.2659 29.5943 65.2659 31.917C65.2659 34.3911 61.3644 37.6028 55.0295 39.7019ZM52.4009 44.9105C53.0414 48.1457 53.1329 51.0707 52.7086 53.3573C52.3275 55.4119 51.5609 56.7818 50.6131 57.3304C48.5962 58.4979 44.2829 56.9804 39.6313 52.9775C39.098 52.5186 38.5609 52.0286 38.0221 51.5101C39.8254 49.5378 41.6277 47.2449 43.3867 44.6985C46.4807 44.424 49.4037 43.9751 52.0545 43.3623C52.1851 43.889 52.301 44.4055 52.4009 44.9105ZM25.819 57.1287C23.8485 57.8246 22.279 57.8445 21.3303 57.2975C19.3115 56.1331 18.4723 51.6386 19.6171 45.6095C19.7482 44.919 19.9043 44.2098 20.0841 43.4848C22.7059 44.0645 25.6075 44.4817 28.7088 44.7331C30.4797 47.2249 32.3341 49.5152 34.2028 51.5207C33.7945 51.9148 33.3878 52.2901 32.9834 52.6437C30.5003 54.8142 28.012 56.3541 25.819 57.1287ZM16.5872 39.6867C13.4665 38.6201 10.8893 37.2338 9.12272 35.7211C7.53537 34.3617 6.73395 33.0121 6.73395 31.917C6.73395 29.5866 10.2084 26.6141 16.0031 24.5937C16.7062 24.3486 17.4422 24.1175 18.2061 23.9005C19.0069 26.5056 20.0575 29.2293 21.3253 31.9835C20.0411 34.7786 18.9756 37.5457 18.1669 40.1814C17.6223 40.0249 17.0948 39.8601 16.5872 39.6867ZM19.6818 18.622C18.479 12.4751 19.2778 7.83814 21.2879 6.67457C23.429 5.43501 28.1636 7.20236 33.1537 11.6332C33.4727 11.9164 33.7929 12.2129 34.1141 12.5195C32.2546 14.5162 30.4172 16.7893 28.662 19.2664C25.652 19.5454 22.7708 19.9935 20.1217 20.5937C19.9552 19.9237 19.8076 19.2655 19.6818 18.622ZM47.2885 25.4388C46.6552 24.3449 46.0051 23.2769 45.3423 22.2381C47.3843 22.4962 49.3407 22.8389 51.178 23.2582C50.6264 25.026 49.9389 26.8744 49.1296 28.7692C48.5491 27.667 47.9351 26.5557 47.2885 25.4388ZM36.0305 14.4735C37.2916 15.8397 38.5545 17.3651 39.7967 19.0201C38.545 18.961 37.2777 18.9302 36 18.9302C34.7344 18.9302 33.4765 18.9603 32.2325 19.0184C33.4759 17.3788 34.7497 15.8554 36.0305 14.4735ZM24.7005 25.4577C24.0679 26.5546 23.4653 27.6598 22.8938 28.7671C22.0977 26.8789 21.4165 25.0222 20.8601 23.2293C22.6862 22.8207 24.6334 22.4865 26.6624 22.2333C25.9903 23.2817 25.3348 24.3576 24.7005 25.4574V25.4577ZM26.7208 41.7957C24.6245 41.5618 22.648 41.2449 20.8224 40.8476C21.3877 39.0227 22.0839 37.1263 22.8969 35.1974C23.4698 36.3039 24.0748 37.4096 24.7113 38.5089H24.7114C25.3597 39.6289 26.0314 40.7259 26.7208 41.7957ZM36.1062 49.5533C34.8103 48.1551 33.5178 46.6086 32.2555 44.945C33.4809 44.9931 34.7303 45.0177 36 45.0177C37.3045 45.0177 38.5941 44.9883 39.8633 44.9318C38.6171 46.6253 37.3587 48.1743 36.1062 49.5533ZM49.1557 35.0991C50.0111 37.0488 50.7323 38.9353 51.3048 40.7291C49.4492 41.1524 47.4457 41.4934 45.3348 41.7467C45.9991 40.6939 46.655 39.6076 47.2994 38.4901C47.9514 37.3596 48.5704 36.2274 49.1557 35.0991ZM44.9311 37.1242C43.9307 38.8589 42.9036 40.5148 41.8609 42.0779C39.9618 42.2137 37.9997 42.2836 36 42.2836C34.0084 42.2836 32.071 42.2218 30.2055 42.1007C29.1208 40.5171 28.0713 38.8563 27.0773 37.1392H27.0775C26.0861 35.4267 25.1736 33.6998 24.3468 31.9826C25.1734 30.2614 26.0835 28.5326 27.0692 26.8232L27.069 26.8236C28.0573 25.1096 29.0975 23.4569 30.1722 21.8832C32.0756 21.7393 34.0274 21.6643 35.9999 21.6643H36C37.9814 21.6643 39.9357 21.7399 41.8385 21.8851C42.8968 23.4472 43.9299 25.0946 44.9221 26.8088C45.9257 28.5421 46.8475 30.2595 47.6812 31.9438C46.85 33.657 45.9302 35.3916 44.9311 37.1242ZM50.5712 6.59323C52.7143 7.82914 53.5478 12.8136 52.2012 19.3497C52.1153 19.7667 52.0186 20.1915 51.9136 20.622C49.2584 20.0094 46.3751 19.5535 43.3563 19.2703C41.5978 16.766 39.7754 14.4893 37.9462 12.5183C38.438 12.0452 38.9291 11.5941 39.4181 11.1683C44.1431 7.05643 48.5591 5.43296 50.5712 6.59323ZM36 26.202C39.1562 26.202 41.715 28.7606 41.715 31.917C41.715 35.0732 39.1562 37.632 36 37.632C32.8438 37.632 30.285 35.0732 30.285 31.917C30.285 28.7606 32.8438 26.202 36 26.202Z" fill="#7B4AE2" fill-opacity="0.5"/>
</g>
<defs>
<filter id="filter0_d_21_3146" x="0" y="0" width="72" height="72" filterUnits="userSpaceOnUse" color-interpolation-filters="sRGB">
<feFlood flood-opacity="0" result="BackgroundImageFix"/>
<feColorMatrix in="SourceAlpha" type="matrix" values="0 0 0 0 0 0 0 0 0 0 0 0 0 0 0 0 0 0 127 0" result="hardAlpha"/>
<feOffset dy="4"/>
<feGaussianBlur stdDeviation="2"/>
<feComposite in2="hardAlpha" operator="out"/>
<feColorMatrix type="matrix" values="0 0 0 0 0 0 0 0 0 0 0 0 0 0 0 0 0 0 0.25 0"/>
<feBlend mode="normal" in2="BackgroundImageFix" result="effect1_dropShadow_21_3146"/>
<feBlend mode="normal" in="SourceGraphic" in2="effect1_dropShadow_21_3146" result="shape"/>
</filter>
</defs>
</svg>
