<svg width="72" height="64" viewBox="0 0 64 64" fill="none" xmlns="http://www.w3.org/2000/svg" xmlns:xlink="http://www.w3.org/1999/xlink">
	<desc>
			Created with Pixso.
	</desc>
	<defs>
		<filter id="filter_21_2899_dd" x="8.000000" y="14.000000" width="48.000000" height="48.000000" filterUnits="userSpaceOnUse" color-interpolation-filters="sRGB">
			<feFlood flood-opacity="0" result="BackgroundImageFix"/>
			<feColorMatrix in="SourceAlpha" type="matrix" values="0 0 0 0 0 0 0 0 0 0 0 0 0 0 0 0 0 0 127 0" result="hardAlpha"/>
			<feOffset dx="0" dy="4"/>
			<feGaussianBlur stdDeviation="1.33333"/>
			<feComposite in2="hardAlpha" operator="out" k2="-1" k3="1"/>
			<feColorMatrix type="matrix" values="0 0 0 0 0 0 0 0 0 0 0 0 0 0 0 0 0 0 0.25 0"/>
			<feBlend mode="normal" in2="BackgroundImageFix" result="effect_dropShadow_1"/>
			<feBlend mode="normal" in="SourceGraphic" in2="effect_dropShadow_1" result="shape"/>
		</filter>
	</defs>
	<path d="M54 14L54 44C54 44.5305 53.7893 45.0391 53.4142 45.4142C53.0391 45.7893 52.5305 46 52 46L42 46C41.4695 46 40.9609 45.7893 40.5858 45.4142C40.2107 45.0391 40 44.5305 40 44L40 38L24 38L24 52C24 52.5305 23.7893 53.0391 23.4142 53.4142C23.0391 53.7893 22.5305 54 22 54L12 54C11.4695 54 10.9609 53.7893 10.5858 53.4142C10.2107 53.0391 10 52.5305 10 52L10 14L54 14Z" stroke="#7B4AE2" stroke-opacity="1.000000" stroke-width="1.000000" stroke-linejoin="round"/>
	<path d="M24 30L10 30" stroke="#7B4AE2" stroke-opacity="1.000000" stroke-width="1.000000" stroke-linejoin="round" stroke-linecap="round"/>
	<path d="M24 14L24 38" stroke="#7B4AE2" stroke-opacity="1.000000" stroke-width="1.000000" stroke-linejoin="round" stroke-linecap="round"/>
	<path d="M40 30L54 30" stroke="#7B4AE2" stroke-opacity="1.000000" stroke-width="1.000000" stroke-linejoin="round" stroke-linecap="round"/>
	<path d="M40 14L40 38" stroke="#7B4AE2" stroke-opacity="1.000000" stroke-width="1.000000" stroke-linejoin="round" stroke-linecap="round"/>
	<g filter="url(#filter_21_2899_dd)">
		<circle cx="32.000000" cy="34.000000" r="20.000000" fill="#7B4AE2" fill-opacity="0.200000"/>
	</g>
</svg>
