<svg width="36.321075" height="40.000031" viewBox="0 0 36.3211 40" fill="none" xmlns="http://www.w3.org/2000/svg" xmlns:xlink="http://www.w3.org/1999/xlink">
	<desc>
			Created with Pixso.
	</desc>
	<defs/>
	<path id="Vector" d="M0.834351 21.3481L5.01425 17.8543C5.98291 17.0448 7.40668 17.1958 8.19403 18.1913C8.98177 19.1872 8.83485 20.6509 7.8662 21.4604L5.84341 23.1512L20.5298 35.8732C21.4985 36.6827 21.6454 38.1464 20.8577 39.1419C20.4111 39.7072 19.7595 40 19.1028 40C18.6018 40 18.0971 39.8296 17.6783 39.4792L0.834351 24.9542C0.306717 24.513 0 23.8507 0 23.1512C0 22.4517 0.306717 21.7898 0.834351 21.3481Z" fill="#FFFFFF" fill-opacity="1.000000" fill-rule="nonzero"/>
	<path id="Vector" d="M19.3954 6.10352e-05C20.5953 0.00994873 21.5606 1.01801 21.551 2.25198L21.3641 37.7835C21.3545 39.0175 20.3737 40.0096 19.1738 39.9997C18.8696 39.9974 18.581 39.9308 18.319 39.8129C17.5476 39.4648 17.0107 38.6694 17.0177 37.7477L17.205 2.21658C17.2146 0.982605 18.1951 -0.00982666 19.3954 6.10352e-05Z" fill="#FFFFFF" fill-opacity="1.000000" fill-rule="nonzero"/>
	<path id="Vector" d="M28.9344 24.4414L30.478 23.1512L24.9798 18.555C24.0112 17.7455 23.8646 16.2818 24.652 15.2863C25.4394 14.2901 26.8631 14.1394 27.8318 14.9489L35.4867 21.3481C36.0147 21.7898 36.3211 22.4517 36.3211 23.1512C36.3211 23.8507 36.0147 24.513 35.4867 24.9542L31.7863 28.0475C31.3671 28.3979 30.8628 28.5682 30.3618 28.5682C29.7047 28.5682 29.0531 28.2754 28.6066 27.7105C27.8192 26.7146 27.9661 25.2513 28.9344 24.4414Z" fill="#7B4AE2" fill-opacity="1.000000" fill-rule="nonzero"/>
</svg>
